<?xml version="1.0" encoding="UTF-8"?>
<!DOCTYPE svg PUBLIC "-//W3C//DTD SVG 1.0//EN" "http://www.w3.org/TR/2001/REC-SVG-20010904/DTD/svg10.dtd">
<!-- Creator: CorelDRAW 2019 (64-Bit) -->
<svg xmlns="http://www.w3.org/2000/svg" xml:space="preserve" width="31.4465mm" height="8.6213mm" version="1.0" style="shape-rendering:geometricPrecision; text-rendering:geometricPrecision; image-rendering:optimizeQuality; fill-rule:evenodd; clip-rule:evenodd"
viewBox="0 0 76.9439 21.0947"
 xmlns:xlink="http://www.w3.org/1999/xlink">
 <defs>
  <style type="text/css">
   <![CDATA[
    .fil1 {fill:black}
    .fil0 {fill:black;fill-rule:nonzero}
   ]]>
  </style>
 </defs>
 <g id="Capa_x0020_1">
  <metadata id="CorelCorpID_0Corel-Layer"/>
  <path class="fil0" d="M35.0964 15.2774l0.2072 1.3409c-0.426,0.0893 -0.8087,0.1353 -1.1424,0.1353 -0.5496,0 -0.9753,-0.0864 -1.2804,-0.2618 -0.3022,-0.1757 -0.5151,-0.403 -0.6386,-0.6878 -0.1238,-0.2848 -0.1842,-0.8833 -0.1842,-1.7955l0 -5.1618 -1.1221 0 0 -1.174 1.1221 0 0 -2.2153 1.5192 -0.9122 0 3.1275 1.5192 0 0 1.174 -1.5192 0 0 5.2482c0,0.4346 0.0259,0.7137 0.0805,0.8373 0.0519,0.1238 0.1382,0.2217 0.2591,0.2963 0.1206,0.0719 0.2934,0.1094 0.5177,0.1094 0.1669,0 0.3886,-0.0201 0.6619,-0.0604zm3.1104 1.3553l-2.7076 -8.96 1.5885 0 1.4299 5.1706 0.5065 1.9249c0.0201,-0.0949 0.1754,-0.7108 0.4632,-1.8473l1.4184 -5.2482 1.5567 0 1.3494 5.2022 0.4402 1.7064 0.5151 -1.7294 1.5481 -5.1792 1.4759 0 -2.8111 8.96 -1.5709 0 -1.4214 -5.3605 -0.3597 -1.5334 -1.8128 6.8939 -1.6083 0zm10.856 -10.6344l0 -1.7265 1.5192 0 0 1.7265 -1.5192 0zm0 10.6344l0 -8.96 1.5192 0 0 8.96 -1.5192 0zm7.1327 -1.3553l0.2072 1.3409c-0.426,0.0893 -0.8087,0.1353 -1.1424,0.1353 -0.5496,0 -0.9753,-0.0864 -1.2804,-0.2618 -0.3022,-0.1757 -0.5151,-0.403 -0.6386,-0.6878 -0.1238,-0.2848 -0.1842,-0.8833 -0.1842,-1.7955l0 -5.1618 -1.1221 0 0 -1.174 1.1221 0 0 -2.2153 1.5192 -0.9122 0 3.1275 1.5192 0 0 1.174 -1.5192 0 0 5.2482c0,0.4346 0.0259,0.7137 0.0805,0.8373 0.0519,0.1238 0.1382,0.2217 0.2591,0.2963 0.1206,0.0719 0.2934,0.1094 0.5177,0.1094 0.1669,0 0.3886,-0.0201 0.6619,-0.0604zm4.7965 0l0.2072 1.3409c-0.426,0.0893 -0.8087,0.1353 -1.1424,0.1353 -0.5496,0 -0.9753,-0.0864 -1.2804,-0.2618 -0.3022,-0.1757 -0.5151,-0.403 -0.6386,-0.6878 -0.1238,-0.2848 -0.1842,-0.8833 -0.1842,-1.7955l0 -5.1618 -1.1221 0 0 -1.174 1.1221 0 0 -2.2153 1.5192 -0.9122 0 3.1275 1.5192 0 0 1.174 -1.5192 0 0 5.2482c0,0.4346 0.0259,0.7137 0.0805,0.8373 0.0519,0.1238 0.1382,0.2217 0.2591,0.2963 0.1206,0.0719 0.2934,0.1094 0.5177,0.1094 0.1669,0 0.3886,-0.0201 0.6619,-0.0604zm7.6106 -1.5449l1.5709 0.207c-0.2444,0.9122 -0.702,1.623 -1.3695,2.1263 -0.6675,0.5036 -1.5192,0.7568 -2.5579,0.7568 -1.3064,0 -2.3421,-0.4027 -3.1075,-1.2085 -0.7654,-0.8028 -1.148,-1.9335 -1.148,-3.3866 0,-1.5019 0.3854,-2.67 1.1595,-3.4987 0.7739,-0.8314 1.7781,-1.2459 3.0125,-1.2459 1.194,0 2.1693,0.4057 2.9261,1.22 0.7568,0.8143 1.1365,1.9594 1.1365,3.4356 0,0.0891 -0.0029,0.2244 -0.0086,0.4027l-6.6725 0c0.0575,0.9812 0.3337,1.735 0.8344,2.256 0.4977,0.5207 1.1221,0.7825 1.8674,0.7825 0.5552,0 1.0299,-0.1468 1.4214,-0.4402 0.3942,-0.2936 0.7049,-0.7624 0.9352,-1.4069zm-4.9722 -2.4343l4.9893 0c-0.0661,-0.7539 -0.2589,-1.3179 -0.5726,-1.6947 -0.4806,-0.5841 -1.1077,-0.8777 -1.876,-0.8777 -0.6964,0 -1.2804,0.2332 -1.7551,0.6993 -0.472,0.4661 -0.7338,1.0905 -0.7857,1.873zm8.4449 5.3346l0 -8.96 1.3639 0 0 1.3727c0.3482,-0.6359 0.6704,-1.056 0.9667,-1.2574 0.2963,-0.2043 0.6215,-0.3051 0.9755,-0.3051 0.5121,0 1.0328,0.1612 1.5623,0.4806l-0.541 1.4013c-0.3682,-0.2072 -0.7365,-0.3107 -1.1047,-0.3107 -0.3311,0 -0.6274,0.1006 -0.8892,0.2992 -0.2618,0.1984 -0.4487,0.4747 -0.5611,0.8287 -0.1698,0.5381 -0.2532,1.1277 -0.2532,1.7695l0 4.6813 -1.5192 0z"/>
  <path class="fil1" d="M25.958 2.4965c-0.957,0.4248 -1.9827,0.7101 -3.061,0.8395 1.1006,-0.6594 1.9462,-1.7032 2.3428,-2.9455 -1.0279,0.609 -2.1708,1.0519 -3.3827,1.2907 -0.9709,-1.0357 -2.3548,-1.6812 -3.8863,-1.6812 -2.9416,0 -5.3267,2.3832 -5.3267,5.3248 0,0.4167 0.0484,0.8234 0.1395,1.2139 -4.4265,-0.2227 -8.3493,-2.3428 -10.9769,-5.5655 -0.4593,0.7891 -0.7203,1.7035 -0.7203,2.6785 0,1.8471 0.9388,3.4777 2.369,4.4346 -0.8738,-0.0284 -1.6952,-0.2691 -2.4135,-0.6675 0,0.0223 0,0.0445 0,0.0666 0,2.5816 1.8371,4.7319 4.2709,5.2237 -0.4451,0.1214 -0.9166,0.1862 -1.402,0.1862 -0.344,0 -0.6778,-0.0325 -1.0034,-0.0971 0.6797,2.1141 2.6462,3.6577 4.9746,3.7001 -1.8207,1.4285 -4.117,2.278 -6.6135,2.278 -0.4309,0 -0.8537,-0.0242 -1.2684,-0.0746 2.3551,1.5129 5.155,2.3932 8.1633,2.3932 9.7956,0 15.1529,-8.1146 15.1529,-15.1509 0,-0.2305 -0.0061,-0.4632 -0.0142,-0.6898 1.0399,-0.7507 1.942,-1.6893 2.6563,-2.7576l-0.0002 0z"/>
 </g>
</svg>
