<?xml version="1.0" encoding="UTF-8"?>
<!DOCTYPE svg PUBLIC "-//W3C//DTD SVG 1.0//EN" "http://www.w3.org/TR/2001/REC-SVG-20010904/DTD/svg10.dtd">
<!-- Creator: CorelDRAW 2019 (64-Bit) -->
<svg xmlns="http://www.w3.org/2000/svg" xml:space="preserve" width="42.2745mm" height="9.3mm" version="1.0" style="shape-rendering:geometricPrecision; text-rendering:geometricPrecision; image-rendering:optimizeQuality; fill-rule:evenodd; clip-rule:evenodd"
viewBox="0 0 139.0549 30.5908"
 xmlns:xlink="http://www.w3.org/1999/xlink">
 <defs>
  <style type="text/css">
   <![CDATA[
    .fil1 {fill:black}
    .fil0 {fill:black;fill-rule:nonzero}
   ]]>
  </style>
 </defs>
 <g id="Capa_x0020_1">
  <metadata id="CorelCorpID_0Corel-Layer"/>
  <path class="fil0" d="M55.3039 23.4763l0 -7.0398 -6.4053 -9.5772 2.6456 0 3.2841 5.0284c0.6112,0.9322 1.1799,1.8644 1.698,2.7966 0.5069,-0.8704 1.122,-1.845 1.8374,-2.9282l3.2183 -4.8968 2.5644 0 -6.6375 9.5772 0 7.0398 -2.2048 0zm7.6431 -6.0224c0,-2.2242 0.6191,-3.8719 1.8608,-4.9435 1.0325,-0.8894 2.2976,-1.3345 3.7867,-1.3345 1.6516,0 3.0055,0.5418 4.0577,1.6246 1.048,1.0792 1.5743,2.5762 1.5743,4.483 0,1.5473 -0.2322,2.7617 -0.6964,3.6475 -0.4641,0.8858 -1.1411,1.5743 -2.0308,2.0657 -0.8858,0.4911 -1.8565,0.7348 -2.9048,0.7348 -1.6864,0 -3.0479,-0.5375 -4.0886,-1.6167 -1.0404,-1.0792 -1.5588,-2.6341 -1.5588,-4.661zm2.0887 0.0036c0,1.5397 0.3365,2.6923 1.0098,3.4545 0.6766,0.7658 1.5239,1.1486 2.5489,1.1486 1.0134,0 1.8565,-0.3829 2.5334,-1.1526 0.673,-0.7697 1.0098,-1.9417 1.0098,-3.516 0,-1.4855 -0.3404,-2.6111 -1.0174,-3.3732 -0.6769,-0.7658 -1.5203,-1.1486 -2.5259,-1.1486 -1.025,0 -1.8723,0.3789 -2.5489,1.1411 -0.6733,0.7618 -1.0098,1.9108 -1.0098,3.4462zm19.4525 6.0188l0 -1.791c-0.9361,1.3654 -2.2048,2.0463 -3.81,2.0463 -0.7079,0 -1.3693,-0.1352 -1.9841,-0.4062 -0.6151,-0.2747 -1.0717,-0.6148 -1.3693,-1.025 -0.298,-0.4138 -0.5069,-0.9167 -0.6266,-1.5124 -0.0812,-0.4023 -0.1237,-1.0365 -0.1237,-1.9029l0 -7.454 2.0423 0 0 6.6648c0,1.0638 0.0424,1.7831 0.1237,2.1506 0.1276,0.5378 0.3983,0.9556 0.8161,1.2608 0.4138,0.3056 0.9246,0.4605 1.5355,0.4605 0.6112,0 1.1838,-0.1549 1.7177,-0.4681 0.5335,-0.3135 0.9128,-0.7427 1.1371,-1.2802 0.2204,-0.5378 0.3326,-1.323 0.3326,-2.3479l0 -6.4405 2.0423 0 0 12.0452 -1.8335 0zm9.5193 0l0 -14.6675 -5.4771 0 0 -1.9496 13.159 0 0 1.9496 -5.4771 0 0 14.6675 -2.2048 0zm16.7022 0l0 -1.791c-0.9361,1.3654 -2.2048,2.0463 -3.81,2.0463 -0.7079,0 -1.3693,-0.1352 -1.9841,-0.4062 -0.6151,-0.2747 -1.0717,-0.6148 -1.3693,-1.025 -0.298,-0.4138 -0.5069,-0.9167 -0.6266,-1.5124 -0.0812,-0.4023 -0.1237,-1.0365 -0.1237,-1.9029l0 -7.454 2.0423 0 0 6.6648c0,1.0638 0.0424,1.7831 0.1237,2.1506 0.1276,0.5378 0.3983,0.9556 0.8161,1.2608 0.4138,0.3056 0.9246,0.4605 1.5355,0.4605 0.6112,0 1.1838,-0.1549 1.7177,-0.4681 0.5335,-0.3135 0.9128,-0.7427 1.1371,-1.2802 0.2204,-0.5378 0.3326,-1.323 0.3326,-2.3479l0 -6.4405 2.0423 0 0 12.0452 -1.8335 0zm6.9201 0l-1.9032 0 0 -16.617 2.0423 0 0 5.9297c0.8625,-1.0753 1.9611,-1.6131 3.2995,-1.6131 0.7388,0 1.4427,0.147 2.1042,0.445 0.6615,0.2977 1.2029,0.7194 1.6322,1.2569 0.4256,0.5418 0.7621,1.1914 1.0019,1.9535 0.2437,0.7582 0.3635,1.5743 0.3635,2.4407 0,2.0578 -0.5105,3.6515 -1.5279,4.7732 -1.021,1.1256 -2.2433,1.6864 -3.6706,1.6864 -1.4197,0 -2.5338,-0.5918 -3.342,-1.7716l0 1.5164zm-0.0234 -6.1116c0,1.4391 0.1974,2.4795 0.5881,3.1216 0.6421,1.0483 1.5085,1.5743 2.6032,1.5743 0.8934,0 1.6631,-0.3868 2.3091,-1.1605 0.65,-0.7737 0.9746,-1.9262 0.9746,-3.4581 0,-1.5703 -0.3092,-2.7269 -0.9322,-3.4732 -0.6227,-0.7467 -1.3769,-1.122 -2.2588,-1.122 -0.8937,0 -1.6634,0.3868 -2.3091,1.1605 -0.65,0.7737 -0.975,1.8914 -0.975,3.3574zm19.2669 2.2127l2.1118 0.2783c-0.3286,1.2263 -0.9437,2.1818 -1.841,2.8584 -0.8973,0.6769 -2.0423,1.0174 -3.4387,1.0174 -1.7562,0 -3.1485,-0.5414 -4.1775,-1.6246 -1.0289,-1.0792 -1.5434,-2.5992 -1.5434,-4.5528 0,-2.019 0.5181,-3.5893 1.5588,-4.7034 1.0404,-1.1177 2.3904,-1.6749 4.0498,-1.6749 1.6052,0 2.9163,0.5454 3.9337,1.6401 1.0174,1.0947 1.5279,2.6341 1.5279,4.6186 0,0.1197 -0.0039,0.3016 -0.0115,0.5414l-8.97 0c0.0773,1.319 0.4487,2.3325 1.1217,3.0328 0.6691,0.7 1.5085,1.0519 2.5104,1.0519 0.7463,0 1.3845,-0.1974 1.9108,-0.5918 0.5299,-0.3947 0.9477,-1.025 1.2572,-1.8914zm-6.6843 -3.2726l6.7073 0c-0.0888,-1.0134 -0.348,-1.7716 -0.7697,-2.2782 -0.646,-0.7852 -1.4891,-1.1799 -2.5219,-1.1799 -0.9361,0 -1.7213,0.3135 -2.3594,0.9401 -0.6345,0.6266 -0.9865,1.4661 -1.0562,2.518z"/>
  <path class="fil1" d="M40.0526 5.258c-0.3806,-2.1025 -2.1953,-3.6334 -4.3018,-4.1113 -3.1512,-0.6684 -8.9842,-1.1467 -15.2947,-1.1467 -6.307,0 -12.2334,0.4783 -15.3888,1.1467 -2.1025,0.4779 -3.9206,1.9118 -4.3018,4.1113 -0.3845,2.39 -0.7654,5.7356 -0.7654,10.0374 0,4.3018 0.3809,7.6474 0.8588,10.0374 0.3852,2.1025 2.1996,3.6334 4.3018,4.1113 3.3456,0.6684 9.0815,1.1467 15.3924,1.1467 6.3106,0 12.0465,-0.4783 15.3921,-1.1467 2.1022,-0.4779 3.9173,-1.9118 4.3018,-4.1113 0.3812,-2.39 0.8588,-5.8326 0.9559,-10.0374 -0.1941,-4.3018 -0.672,-7.6474 -1.1503,-10.0374zm-24.7572 16.7292l0 -13.3836 11.662 6.6918 -11.662 6.6918z"/>
 </g>
</svg>
