<?xml version="1.0" encoding="UTF-8"?>
<!DOCTYPE svg PUBLIC "-//W3C//DTD SVG 1.0//EN" "http://www.w3.org/TR/2001/REC-SVG-20010904/DTD/svg10.dtd">
<!-- Creator: CorelDRAW 2019 (64-Bit) -->
<svg xmlns="http://www.w3.org/2000/svg" xml:space="preserve" width="41.6536mm" height="9.3134mm" version="1.0" style="shape-rendering:geometricPrecision; text-rendering:geometricPrecision; image-rendering:optimizeQuality; fill-rule:evenodd; clip-rule:evenodd"
viewBox="0 0 135.0002 30.1849"
 xmlns:xlink="http://www.w3.org/1999/xlink">
 <defs>
  <style type="text/css">
   <![CDATA[
    .fil1 {fill:black}
    .fil0 {fill:black;fill-rule:nonzero}
   ]]>
  </style>
 </defs>
 <g id="Capa_x0020_1">
  <metadata id="CorelCorpID_0Corel-Layer"/>
  <path class="fil0" d="M37.5472 8.7365l0 -2.2869 2.0123 0 0 2.2869 -2.0123 0zm0 14.0861l0 -11.8683 2.0123 0 0 11.8683 -2.0123 0zm5.0803 0l0 -11.8683 1.8065 0 0 1.6847c0.8689,-1.2919 2.1264,-1.9362 3.7693,-1.9362 0.7163,0 1.3719,0.1296 1.9702,0.385 0.5983,0.2554 1.0481,0.5944 1.3453,1.0099 0.2972,0.4155 0.5069,0.9111 0.6252,1.4828 0.0723,0.3734 0.1105,1.0251 0.1105,1.955l0 7.2871 -2.0123 0 0 -7.2109c0,-0.8193 -0.0762,-1.4329 -0.2324,-1.837 -0.1565,-0.4038 -0.4346,-0.7279 -0.831,-0.9717 -0.3964,-0.2402 -0.865,-0.362 -1.3988,-0.362 -0.8537,0 -1.5891,0.2703 -2.2104,0.8154 -0.6213,0.5413 -0.9298,1.5742 -0.9298,3.091l0 6.4752 -2.0123 0zm11.9176 -3.5444l1.9897 -0.3202c0.1105,0.7966 0.423,1.4063 0.9337,1.8331 0.5105,0.4233 1.2271,0.6365 2.1417,0.6365 0.9263,0 1.6124,-0.1867 2.0619,-0.5639 0.446,-0.3737 0.6709,-0.8158 0.6709,-1.3227 0,-0.4534 -0.2019,-0.8119 -0.6022,-1.0708 -0.282,-0.1792 -0.9681,-0.4042 -2.058,-0.6822 -1.4711,-0.3698 -2.4888,-0.69 -3.0605,-0.9603 -0.5678,-0.2745 -0.9986,-0.6482 -1.2919,-1.1282 -0.2936,-0.4764 -0.4421,-1.0063 -0.4421,-1.5855 0,-0.5299 0.1219,-1.0177 0.362,-1.4672 0.2437,-0.4499 0.5717,-0.8232 0.9869,-1.1207 0.3128,-0.2285 0.7396,-0.423 1.277,-0.5831 0.5413,-0.1601 1.1165,-0.2402 1.7339,-0.2402 0.9302,0 1.7456,0.1335 2.447,0.4042 0.7049,0.2667 1.2232,0.6326 1.5586,1.09 0.3316,0.4612 0.5643,1.0747 0.69,1.8445l-1.9667 0.2745c-0.0878,-0.6174 -0.3468,-1.1013 -0.7736,-1.4481 -0.4268,-0.3468 -1.029,-0.5186 -1.8104,-0.5186 -0.9185,0 -1.5777,0.1527 -1.9702,0.4573 -0.3928,0.305 -0.5908,0.6634 -0.5908,1.0712 0,0.259 0.0801,0.4956 0.2437,0.7049 0.164,0.2136 0.4194,0.3928 0.7701,0.5338 0.2019,0.0762 0.7889,0.2476 1.7722,0.5144 1.4176,0.3773 2.4087,0.69 2.9727,0.9298 0.5643,0.2402 1.0063,0.5947 1.3262,1.052 0.3241,0.4612 0.4842,1.0329 0.4842,1.7187 0,0.667 -0.1945,1.2961 -0.5869,1.8866 -0.3925,0.5908 -0.9567,1.0481 -1.6921,1.3722 -0.7396,0.3238 -1.5742,0.4839 -2.504,0.4839 -1.5398,0 -2.7173,-0.3202 -3.5253,-0.9564 -0.808,-0.6404 -1.3227,-1.5855 -1.5476,-2.8395zm16.6018 1.7492l0.2745 1.7761c-0.5643,0.1183 -1.0712,0.1792 -1.5132,0.1792 -0.7279,0 -1.2919,-0.1144 -1.696,-0.3468 -0.4003,-0.2327 -0.6822,-0.5338 -0.8459,-0.9111 -0.164,-0.3773 -0.244,-1.17 -0.244,-2.3783l0 -6.8373 -1.4863 0 0 -1.555 1.4863 0 0 -2.9344 2.0123 -1.2083 0 4.1427 2.0123 0 0 1.555 -2.0123 0 0 6.9517c0,0.5756 0.0344,0.9454 0.1066,1.1091 0.0687,0.164 0.1831,0.2936 0.3432,0.3925 0.1598,0.0953 0.3886,0.1449 0.6858,0.1449 0.221,0 0.5147,-0.0266 0.8767,-0.0801zm9.7376 0.3089c-0.7471,0.6365 -1.4672,1.0825 -2.1572,1.3453 -0.6897,0.2628 -1.429,0.3925 -2.2217,0.3925 -1.3035,0 -2.306,-0.3163 -3.007,-0.9529 -0.7014,-0.6326 -1.052,-1.4445 -1.052,-2.4314 0,-0.5795 0.1335,-1.1091 0.3964,-1.5894 0.2667,-0.48 0.6135,-0.8611 1.0404,-1.1509 0.4307,-0.2897 0.9111,-0.5108 1.4484,-0.6592 0.3964,-0.1031 0.9947,-0.2022 1.7913,-0.3011 1.6234,-0.1906 2.8239,-0.4233 3.5901,-0.69 0.0078,-0.2745 0.0113,-0.4499 0.0113,-0.5221 0,-0.8154 -0.1906,-1.391 -0.5717,-1.7265 -0.5144,-0.4534 -1.2805,-0.6783 -2.2943,-0.6783 -0.949,0 -1.6503,0.1676 -2.0999,0.4991 -0.4534,0.3316 -0.7853,0.9185 -1.0024,1.7647l-1.9667 -0.2745c0.1792,-0.8423 0.4729,-1.5243 0.8845,-2.0428 0.4116,-0.5182 1.006,-0.9146 1.7835,-1.1966 0.7736,-0.2784 1.6769,-0.4194 2.6981,-0.4194 1.0138,0 1.8409,0.1183 2.4774,0.3585 0.6326,0.2402 1.1016,0.5374 1.3988,0.8994 0.2972,0.362 0.5069,0.8193 0.6288,1.3719 0.0648,0.3432 0.0992,0.9606 0.0992,1.8487l0 2.6677c0,1.8636 0.0418,3.0414 0.1258,3.5405 0.0801,0.4994 0.2476,0.9759 0.4917,1.4332l-2.1037 0c-0.2022,-0.423 -0.3316,-0.9185 -0.3889,-1.4863zm-0.1601 -4.4593c-0.7318,0.2975 -1.8292,0.549 -3.2929,0.7548 -0.8307,0.118 -1.4176,0.2515 -1.7608,0.4003 -0.3429,0.1484 -0.6057,0.3656 -0.7928,0.6479 -0.1867,0.2859 -0.282,0.6022 -0.282,0.9525 0,0.5299 0.2022,0.9759 0.61,1.3301 0.4077,0.3546 1.0021,0.5338 1.7835,0.5338 0.7736,0 1.4636,-0.1679 2.0694,-0.5069 0.6022,-0.3354 1.0481,-0.7966 1.3301,-1.3797 0.2175,-0.4534 0.3241,-1.1204 0.3241,-2.001l0.0113 -0.7318zm4.7565 6.929l1.9436 0.2745c0.0801,0.6022 0.3089,1.0404 0.6822,1.3184 0.4994,0.3698 1.1817,0.5565 2.0467,0.5565 0.9298,0 1.6503,-0.1867 2.1572,-0.5565 0.5069,-0.3695 0.8498,-0.8916 1.029,-1.5586 0.1027,-0.408 0.1523,-1.2653 0.1449,-2.5727 -0.8806,1.0368 -1.9744,1.555 -3.2854,1.555 -1.6312,0 -2.8965,-0.5869 -3.7884,-1.7647 -0.8955,-1.1736 -1.3415,-2.5837 -1.3415,-4.2266 0,-1.1318 0.2058,-2.176 0.6135,-3.1328 0.408,-0.9564 1.0024,-1.6921 1.78,-2.2143 0.7775,-0.5221 1.6921,-0.7814 2.7442,-0.7814 1.3985,0 2.5533,0.5717 3.4604,1.7151l0 -1.4636 1.8522 0 0 10.2484c0,1.8487 -0.1867,3.1558 -0.5639,3.9255 -0.3737,0.7701 -0.972,1.3797 -1.7839,1.8257 -0.8154,0.446 -1.8179,0.6709 -3.007,0.6709 -1.4137,0 -2.5533,-0.3163 -3.4225,-0.9529 -0.8728,-0.6326 -1.2919,-1.5894 -1.2614,-2.866zm1.6464 -7.1196c0,1.5515 0.3089,2.6832 0.9263,3.3959 0.621,0.7127 1.3949,1.0708 2.3248,1.0708 0.926,0 1.6996,-0.3542 2.3287,-1.0631 0.6249,-0.7091 0.9376,-1.8218 0.9376,-3.3389 0,-1.4481 -0.3241,-2.5419 -0.9681,-3.2776 -0.6443,-0.7354 -1.4218,-1.1013 -2.3287,-1.1013 -0.8958,0 -1.6542,0.362 -2.283,1.0861 -0.6252,0.7244 -0.9376,1.7991 -0.9376,3.2281zm11.4184 6.1362l0 -11.8683 1.8065 0 0 1.8182c0.4612,-0.8423 0.888,-1.3988 1.2805,-1.6656 0.3925,-0.2706 0.8232,-0.4042 1.2922,-0.4042 0.6783,0 1.368,0.2136 2.0694,0.6365l-0.7166 1.8561c-0.4878,-0.2745 -0.9755,-0.4116 -1.4633,-0.4116 -0.4385,0 -0.831,0.1332 -1.1778,0.3964 -0.3468,0.2628 -0.5944,0.6288 -0.7432,1.0977 -0.2249,0.7127 -0.3354,1.4938 -0.3354,2.3439l0 6.2007 -2.0123 0zm15.3897 -1.4863c-0.7471,0.6365 -1.4672,1.0825 -2.1572,1.3453 -0.6897,0.2628 -1.429,0.3925 -2.2217,0.3925 -1.3035,0 -2.306,-0.3163 -3.007,-0.9529 -0.7014,-0.6326 -1.052,-1.4445 -1.052,-2.4314 0,-0.5795 0.1335,-1.1091 0.3964,-1.5894 0.2667,-0.48 0.6135,-0.8611 1.0404,-1.1509 0.4307,-0.2897 0.9111,-0.5108 1.4484,-0.6592 0.3964,-0.1031 0.9947,-0.2022 1.7913,-0.3011 1.6234,-0.1906 2.8239,-0.4233 3.5901,-0.69 0.0078,-0.2745 0.0113,-0.4499 0.0113,-0.5221 0,-0.8154 -0.1906,-1.391 -0.5717,-1.7265 -0.5144,-0.4534 -1.2805,-0.6783 -2.2943,-0.6783 -0.949,0 -1.6503,0.1676 -2.0999,0.4991 -0.4534,0.3316 -0.7853,0.9185 -1.0024,1.7647l-1.9667 -0.2745c0.1792,-0.8423 0.4729,-1.5243 0.8845,-2.0428 0.4116,-0.5182 1.006,-0.9146 1.7835,-1.1966 0.7736,-0.2784 1.6769,-0.4194 2.6981,-0.4194 1.0138,0 1.8409,0.1183 2.4774,0.3585 0.6326,0.2402 1.1016,0.5374 1.3988,0.8994 0.2972,0.362 0.5069,0.8193 0.6288,1.3719 0.0648,0.3432 0.0992,0.9606 0.0992,1.8487l0 2.6677c0,1.8636 0.0418,3.0414 0.1258,3.5405 0.0801,0.4994 0.2476,0.9759 0.4917,1.4332l-2.1037 0c-0.2022,-0.423 -0.3316,-0.9185 -0.3889,-1.4863zm-0.1601 -4.4593c-0.7318,0.2975 -1.8292,0.549 -3.2929,0.7548 -0.8307,0.118 -1.4176,0.2515 -1.7608,0.4003 -0.3429,0.1484 -0.6057,0.3656 -0.7928,0.6479 -0.1867,0.2859 -0.282,0.6022 -0.282,0.9525 0,0.5299 0.2022,0.9759 0.61,1.3301 0.4077,0.3546 1.0021,0.5338 1.7835,0.5338 0.7736,0 1.4636,-0.1679 2.0694,-0.5069 0.6022,-0.3354 1.0481,-0.7966 1.3301,-1.3797 0.2175,-0.4534 0.3241,-1.1204 0.3241,-2.001l0.0113 -0.7318zm5.1263 5.9457l0 -11.8683 1.8065 0 0 1.6772c0.3695,-0.5795 0.865,-1.0481 1.4824,-1.3988 0.6174,-0.3546 1.3188,-0.5299 2.1076,-0.5299 0.8767,0 1.5969,0.1831 2.1572,0.5451 0.56,0.3659 0.9564,0.8728 1.1852,1.5281 0.9451,-1.3833 2.1686,-2.0733 3.6779,-2.0733 1.1814,0 2.0921,0.3241 2.7251,0.9759 0.6362,0.6518 0.9564,1.6539 0.9564,3.007l0 8.1369 -2.0123 0 0 -7.4699c0,-0.8005 -0.0684,-1.3797 -0.198,-1.7343 -0.1296,-0.3542 -0.3659,-0.6365 -0.7127,-0.8537 -0.3432,-0.2171 -0.7471,-0.3238 -1.2083,-0.3238 -0.8385,0 -1.532,0.2781 -2.0846,0.8307 -0.5526,0.5565 -0.8271,1.4445 -0.8271,2.6641l0 6.8868 -2.0123 0 0 -7.7026c0,-0.8916 -0.164,-1.5625 -0.4917,-2.0085 -0.3277,-0.446 -0.865,-0.6706 -1.6082,-0.6706 -0.5643,0 -1.0864,0.1484 -1.5667,0.4456 -0.48,0.2975 -0.8268,0.7318 -1.0443,1.3074 -0.2133,0.5717 -0.3199,1.3988 -0.3199,2.4771l0 6.1515 -2.0123 0z"/>
  <path class="fil1" d="M8.9183 0c-4.9189,0 -8.9183,3.9994 -8.9183,8.9183l0 12.3483c0,4.9189 3.9994,8.9183 8.9183,8.9183l12.3483 0c4.9189,0 8.9183,-3.9994 8.9183,-8.9183l0 -12.3483c0,-4.9189 -3.9994,-8.9183 -8.9183,-8.9183l-12.3483 0zm14.4063 5.4883c0.7545,0 1.3719,0.6174 1.3719,1.3719 0,0.7545 -0.6174,1.3719 -1.3719,1.3719 -0.7545,0 -1.3719,-0.6174 -1.3719,-1.3719 0,-0.7545 0.6174,-1.3719 1.3719,-1.3719zm-8.2322 2.058c4.1641,0 7.5461,3.382 7.5461,7.5461 0,4.1641 -3.382,7.5461 -7.5461,7.5461 -4.1641,0 -7.5461,-3.382 -7.5461,-7.5461 0,-4.1641 3.382,-7.5461 7.5461,-7.5461zm0 1.8406c-3.1444,0 -5.7055,2.5611 -5.7055,5.7055 0,3.1444 2.5611,5.7055 5.7055,5.7055 3.1444,0 5.7055,-2.5611 5.7055,-5.7055 0,-3.1444 -2.5611,-5.7055 -5.7055,-5.7055z"/>
 </g>
</svg>
