<?xml version="1.0" encoding="UTF-8"?>
<!DOCTYPE svg PUBLIC "-//W3C//DTD SVG 1.0//EN" "http://www.w3.org/TR/2001/REC-SVG-20010904/DTD/svg10.dtd">
<!-- Creator: CorelDRAW 2019 (64-Bit) -->
<svg xmlns="http://www.w3.org/2000/svg" xml:space="preserve" width="39.4947mm" height="8.89mm" version="1.0" style="shape-rendering:geometricPrecision; text-rendering:geometricPrecision; image-rendering:optimizeQuality; fill-rule:evenodd; clip-rule:evenodd"
viewBox="0 0 121.3688 27.3193"
 xmlns:xlink="http://www.w3.org/1999/xlink">
 <defs>
  <style type="text/css">
   <![CDATA[
    .fil0 {fill:black}
    .fil1 {fill:black;fill-rule:nonzero}
   ]]>
  </style>
 </defs>
 <g id="Capa_x0020_1">
  <metadata id="CorelCorpID_0Corel-Layer"/>
  <path class="fil0" d="M24.0671 0l-20.8149 0c-1.7953,0 -3.2522,1.4569 -3.2522,3.2522l0 20.8146c0,1.7953 1.4569,3.2522 3.2522,3.2522l20.8149 0.0003c1.7953,0 3.2522,-1.4569 3.2522,-3.2522l0 -20.8149c0,-1.7953 -1.4569,-3.2522 -3.2522,-3.2522zm-2.6019 9.7569l-1.3008 0c-1.3921,0 -1.9514,0.3251 -1.9514,1.3008l0 1.9514 3.2522 0 -0.6506 3.2522 -2.6016 0.0003 0 9.7569 -3.2525 0 0 -9.7569 -2.6016 0 0 -3.2522 2.6016 -0.0003 0 -1.9514c0,-2.6019 1.3008,-4.5533 3.9028,-4.5533 1.8862,0 2.6019,0.6506 2.6019,0.6506l0 2.6019z"/>
  <path class="fil1" d="M35.3409 21.4329l0 -9.7787 -1.6911 0 0 -1.4744 1.6911 0 0 -1.1923c0,-0.7554 0.0651,-1.3156 0.1988,-1.6803 0.1844,-0.4917 0.5024,-0.8927 0.9649,-1.1997 0.4588,-0.3073 1.1057,-0.4591 1.9369,-0.4591 0.5384,0 1.1312,0.0651 1.7814,0.1915l-0.2855 1.6696c-0.3973,-0.0685 -0.7695,-0.1048 -1.1238,-0.1048 -0.578,0 -0.9864,0.1229 -1.2286,0.3688 -0.2385,0.2455 -0.3577,0.7046 -0.3577,1.3767l0 1.0298 2.1898 0 0 1.4744 -2.1683 0 0 9.7787 -1.9081 0zm12.9191 -1.4093c-0.7083,0.6035 -1.3912,1.0264 -2.0454,1.2756 -0.6539,0.2492 -1.3549,0.3721 -2.1066,0.3721 -1.236,0 -2.1865,-0.2999 -2.8512,-0.9035 -0.665,-0.5999 -0.9975,-1.3697 -0.9975,-2.3054 0,-0.5495 0.1266,-1.0516 0.3758,-1.507 0.2529,-0.4551 0.5817,-0.8165 0.9864,-1.0912 0.4084,-0.2747 0.8638,-0.4843 1.3733,-0.6251 0.3758,-0.0977 0.9431,-0.1918 1.6985,-0.2855 1.5393,-0.1807 2.6775,-0.4013 3.404,-0.6543 0.0074,-0.2603 0.0108,-0.4265 0.0108,-0.4951 0,-0.7732 -0.1807,-1.3189 -0.5421,-1.637 -0.4877,-0.4299 -1.2142,-0.6432 -2.1754,-0.6432 -0.8998,0 -1.5648,0.1589 -1.991,0.4732 -0.4299,0.3144 -0.7446,0.8709 -0.9505,1.6733l-1.8647 -0.2603c0.1699,-0.7987 0.4484,-1.4453 0.8386,-1.9369 0.3903,-0.4914 0.9539,-0.8672 1.6911,-1.1346 0.7335,-0.264 1.59,-0.3977 2.5583,-0.3977 0.9612,0 1.7455,0.1122 2.349,0.3399 0.5999,0.2277 1.0445,0.5095 1.3263,0.8528 0.2818,0.3433 0.4806,0.7769 0.5962,1.3008 0.0615,0.3254 0.094,0.9108 0.094,1.7529l0 2.5294c0,1.767 0.0396,2.8837 0.1192,3.357 0.0759,0.4736 0.2348,0.9253 0.4662,1.3589l-1.9947 0c-0.1918,-0.401 -0.3144,-0.8709 -0.3688,-1.4093zm-0.1518 -4.2282c-0.6939,0.2821 -1.7344,0.5206 -3.1222,0.7157 -0.7876,0.1119 -1.3441,0.2385 -1.6696,0.3795 -0.3251,0.1407 -0.5744,0.3466 -0.7517,0.6143 -0.177,0.271 -0.2674,0.571 -0.2674,0.9032 0,0.5024 0.1918,0.9253 0.5783,1.2612 0.3866,0.3362 0.9502,0.5061 1.6911,0.5061 0.7335,0 1.3878,-0.1592 1.9621,-0.4806 0.571,-0.3181 0.9938,-0.7554 1.2612,-1.3082 0.2062,-0.4299 0.3073,-1.0623 0.3073,-1.8973l0.0108 -0.6939zm12.2107 1.5178l1.8647 0.2603c-0.2059,1.283 -0.7265,2.2839 -1.5685,3.0103 -0.8417,0.7262 -1.8789,1.0875 -3.1041,1.0875 -1.5359,0 -2.7716,-0.5021 -3.7039,-1.507 -0.936,-1.0046 -1.4022,-2.4428 -1.4022,-4.3145 0,-1.2142 0.2025,-2.2731 0.6035,-3.1837 0.401,-0.9072 1.012,-1.59 1.8358,-2.0417 0.8202,-0.4554 1.7129,-0.6831 2.6812,-0.6831 1.2178,0 2.2187,0.3073 2.9922,0.9253 0.7769,0.618 1.2756,1.496 1.4926,2.6308l-1.8432 0.2818c-0.177,-0.7554 -0.4877,-1.3226 -0.9394,-1.7058 -0.448,-0.3792 -0.9901,-0.571 -1.6263,-0.571 -0.9612,0 -1.7418,0.3433 -2.3453,1.0301 -0.5999,0.6902 -0.8998,1.7744 -0.8998,3.263 0,1.5107 0.2892,2.6056 0.8675,3.2885 0.5817,0.6831 1.3368,1.0264 2.2658,1.0264 0.7517,0 1.3767,-0.2277 1.8755,-0.6865 0.5021,-0.4554 0.8202,-1.1601 0.9539,-2.1106zm11.1665 0.4772l1.9729 0.26c-0.307,1.1456 -0.8817,2.0383 -1.72,2.6705 -0.8383,0.6324 -1.9081,0.9505 -3.2126,0.9505 -1.6407,0 -2.9415,-0.5058 -3.9028,-1.5178 -0.9612,-1.0083 -1.4419,-2.4283 -1.4419,-4.2534 0,-1.8862 0.484,-3.3533 1.4563,-4.3941 0.972,-1.0442 2.2332,-1.5648 3.7835,-1.5648 1.4996,0 2.7246,0.5095 3.675,1.5322 0.9505,1.0227 1.4274,2.4609 1.4274,4.3149 0,0.1119 -0.0037,0.2818 -0.0108,0.5058l-8.3802 0c0.0722,1.2323 0.4192,2.1791 1.0479,2.8333 0.6251,0.6539 1.4093,0.9828 2.3453,0.9828 0.6973,0 1.2934,-0.1844 1.7851,-0.5528 0.4951,-0.3688 0.8853,-0.9576 1.1745,-1.767zm-6.2447 -3.0574l6.2662 0c-0.083,-0.9468 -0.3251,-1.6551 -0.7191,-2.1284 -0.6035,-0.7335 -1.3912,-1.1023 -2.3561,-1.1023 -0.8746,0 -1.6081,0.2929 -2.2043,0.8783 -0.5928,0.5854 -0.9216,1.3697 -0.9868,2.3524zm12.3843 6.6998l-1.7781 0 0 -15.5244 1.9081 0 0 5.5398c0.8058,-1.0046 1.8321,-1.507 3.0826,-1.507 0.6902,0 1.3478,0.1374 1.9658,0.4158 0.618,0.2781 1.1238,0.6721 1.5248,1.1742 0.3977,0.5061 0.712,1.1131 0.936,1.8251 0.2277,0.7083 0.3396,1.4708 0.3396,2.2802 0,1.9225 -0.4769,3.4114 -1.4274,4.4593 -0.9539,1.0516 -2.0958,1.5755 -3.4292,1.5755 -1.3263,0 -2.3672,-0.5528 -3.1222,-1.6551l0 1.4167zm-0.0218 -5.7097c0,1.3445 0.1844,2.3165 0.5495,2.9163 0.5999,0.9794 1.4093,1.4708 2.432,1.4708 0.8346,0 1.5537,-0.3614 2.1573,-1.0842 0.6072,-0.7228 0.9105,-1.7996 0.9105,-3.2307 0,-1.4671 -0.2889,-2.5475 -0.8709,-3.2448 -0.5817,-0.6976 -1.2864,-1.0482 -2.1103,-1.0482 -0.8349,0 -1.554,0.3614 -2.1573,1.0842 -0.6072,0.7228 -0.9108,1.767 -0.9108,3.1367zm9.6088 0.0833c0,-2.078 0.5783,-3.6173 1.7384,-4.6185 0.9646,-0.8309 2.1465,-1.2467 3.5377,-1.2467 1.543,0 2.8078,0.5061 3.7909,1.5178 0.9791,1.0083 1.4708,2.4068 1.4708,4.1882 0,1.4456 -0.217,2.5801 -0.6506,3.4077 -0.4336,0.8276 -1.066,1.4708 -1.8973,1.9299 -0.8276,0.4588 -1.7344,0.6865 -2.7138,0.6865 -1.5755,0 -2.8475,-0.5021 -3.8198,-1.5104 -0.972,-1.0083 -1.4563,-2.4609 -1.4563,-4.3545zm1.9514 0.0034c0,1.4385 0.3144,2.5153 0.9434,3.2273 0.6321,0.7154 1.4237,1.0731 2.3813,1.0731 0.9468,0 1.7344,-0.3577 2.3669,-1.0768 0.6287,-0.7191 0.9434,-1.814 0.9434,-3.2848 0,-1.3878 -0.3181,-2.4394 -0.9505,-3.1514 -0.6324,-0.7154 -1.4204,-1.0731 -2.3598,-1.0731 -0.9576,0 -1.7492,0.354 -2.3813,1.066 -0.6291,0.7117 -0.9434,1.7851 -0.9434,3.2196zm10.1075 -0.0034c0,-2.078 0.5783,-3.6173 1.7384,-4.6185 0.9646,-0.8309 2.1465,-1.2467 3.5377,-1.2467 1.543,0 2.8078,0.5061 3.7909,1.5178 0.9791,1.0083 1.4708,2.4068 1.4708,4.1882 0,1.4456 -0.217,2.5801 -0.6506,3.4077 -0.4336,0.8276 -1.066,1.4708 -1.8973,1.9299 -0.8276,0.4588 -1.7344,0.6865 -2.7138,0.6865 -1.5755,0 -2.8475,-0.5021 -3.8198,-1.5104 -0.972,-1.0083 -1.4563,-2.4609 -1.4563,-4.3545zm1.9514 0.0034c0,1.4385 0.3144,2.5153 0.9434,3.2273 0.6321,0.7154 1.4237,1.0731 2.3813,1.0731 0.9468,0 1.7344,-0.3577 2.3669,-1.0768 0.6287,-0.7191 0.9434,-1.814 0.9434,-3.2848 0,-1.3878 -0.3181,-2.4394 -0.9505,-3.1514 -0.6324,-0.7154 -1.4204,-1.0731 -2.3598,-1.0731 -0.9576,0 -1.7492,0.354 -2.3813,1.066 -0.6291,0.7117 -0.9434,1.7851 -0.9434,3.2196zm10.8303 5.623l0 -15.5244 1.9081 0 0 8.8427 4.51 -4.5715 2.4646 0 -4.293 4.1812 4.7266 7.072 -2.349 0 -3.7365 -5.7493 -1.3226 1.2864 0 4.463 -1.9081 0z"/>
 </g>
</svg>
