<?xml version="1.0" encoding="UTF-8"?>
<!DOCTYPE svg PUBLIC "-//W3C//DTD SVG 1.0//EN" "http://www.w3.org/TR/2001/REC-SVG-20010904/DTD/svg10.dtd">
<!-- Creator: CorelDRAW 2019 (64-Bit) -->
<svg xmlns="http://www.w3.org/2000/svg" xml:space="preserve" width="12.5262mm" height="9.3mm" version="1.0" style="shape-rendering:geometricPrecision; text-rendering:geometricPrecision; image-rendering:optimizeQuality; fill-rule:evenodd; clip-rule:evenodd"
viewBox="0 0 12.3852 9.1953"
 xmlns:xlink="http://www.w3.org/1999/xlink">
 <defs>
  <style type="text/css">
   <![CDATA[
    .fil0 {fill:black}
   ]]>
  </style>
 </defs>
 <g id="Capa_x0020_1">
  <metadata id="CorelCorpID_0Corel-Layer"/>
  <path class="fil0" d="M12.0394 1.5805c-0.1144,-0.632 -0.6599,-1.0922 -1.2931,-1.2358 -0.9472,-0.2009 -2.7006,-0.3447 -4.5975,-0.3447 -1.8958,0 -3.6772,0.1438 -4.6257,0.3447 -0.632,0.1437 -1.1785,0.5747 -1.2931,1.2358 -0.1156,0.7184 -0.2301,1.7241 -0.2301,3.0172 0,1.2931 0.1145,2.2987 0.2582,3.0172 0.1158,0.632 0.6612,1.0922 1.2931,1.2358 1.0057,0.2009 2.7298,0.3447 4.6268,0.3447 1.8969,0 3.6211,-0.1438 4.6267,-0.3447 0.6319,-0.1437 1.1775,-0.5747 1.2931,-1.2358 0.1146,-0.7184 0.2582,-1.7532 0.2873,-3.0172 -0.0583,-1.2931 -0.202,-2.2987 -0.3458,-3.0172zm-7.4418 5.0287l0 -4.023 3.5055 2.0115 -3.5055 2.0115z"/>
 </g>
</svg>
