<?xml version="1.0" encoding="UTF-8"?>
<!DOCTYPE svg PUBLIC "-//W3C//DTD SVG 1.0//EN" "http://www.w3.org/TR/2001/REC-SVG-20010904/DTD/svg10.dtd">
<!-- Creator: CorelDRAW 2019 (64-Bit) -->
<svg xmlns="http://www.w3.org/2000/svg" xml:space="preserve" width="10.609mm" height="8.6213mm" version="1.0" style="shape-rendering:geometricPrecision; text-rendering:geometricPrecision; image-rendering:optimizeQuality; fill-rule:evenodd; clip-rule:evenodd"
viewBox="0 0 10.4683 8.507"
 xmlns:xlink="http://www.w3.org/1999/xlink">
 <defs>
  <style type="text/css">
   <![CDATA[
    .fil0 {fill:black}
   ]]>
  </style>
 </defs>
 <g id="Capa_x0020_1">
  <metadata id="CorelCorpID_0Corel-Layer"/>
  <path class="fil0" d="M10.4682 1.0068c-0.3859,0.1713 -0.7996,0.2864 -1.2344,0.3385 0.4438,-0.2659 0.7849,-0.6869 0.9448,-1.1878 -0.4145,0.2456 -0.8754,0.4242 -1.3642,0.5205 -0.3915,-0.4177 -0.9496,-0.678 -1.5672,-0.678 -1.1863,0 -2.1481,0.9611 -2.1481,2.1473 0,0.168 0.0195,0.332 0.0562,0.4895 -1.7851,-0.0898 -3.367,-0.9448 -4.4267,-2.2444 -0.1852,0.3182 -0.2905,0.687 -0.2905,1.0802 0,0.7449 0.3786,1.4024 0.9554,1.7884 -0.3524,-0.0114 -0.6836,-0.1085 -0.9733,-0.2692 0,0.009 0,0.018 0,0.0268 0,1.0411 0.7408,1.9083 1.7223,2.1066 -0.1795,0.0489 -0.3696,0.0751 -0.5654,0.0751 -0.1387,0 -0.2733,-0.0131 -0.4047,-0.0392 0.2741,0.8525 1.0672,1.4751 2.0061,1.4921 -0.7342,0.5761 -1.6603,0.9187 -2.6671,0.9187 -0.1738,0 -0.3443,-0.0098 -0.5115,-0.0301 0.9497,0.6101 2.0789,0.9651 3.2921,0.9651 3.9503,0 6.1108,-3.2724 6.1108,-6.11 0,-0.093 -0.0025,-0.1868 -0.0057,-0.2782 0.4194,-0.3027 0.7832,-0.6812 1.0712,-1.1121l-0.0001 0z"/>
 </g>
</svg>
