<?xml version="1.0" encoding="UTF-8"?>
<!DOCTYPE svg PUBLIC "-//W3C//DTD SVG 1.0//EN" "http://www.w3.org/TR/2001/REC-SVG-20010904/DTD/svg10.dtd">
<!-- Creator: CorelDRAW 2019 (64-Bit) -->
<svg xmlns="http://www.w3.org/2000/svg" xml:space="preserve" width="9.3134mm" height="9.3134mm" version="1.0" style="shape-rendering:geometricPrecision; text-rendering:geometricPrecision; image-rendering:optimizeQuality; fill-rule:evenodd; clip-rule:evenodd"
viewBox="0 0 9.173 9.173"
 xmlns:xlink="http://www.w3.org/1999/xlink">
 <defs>
  <style type="text/css">
   <![CDATA[
    .fil0 {fill:black}
   ]]>
  </style>
 </defs>
 <g id="Capa_x0020_1">
  <metadata id="CorelCorpID_0Corel-Layer"/>
  <path class="fil0" d="M2.7102 0c-1.4948,0 -2.7102,1.2154 -2.7102,2.7102l0 3.7525c0,1.4948 1.2154,2.7102 2.7102,2.7102l3.7525 0c1.4948,0 2.7102,-1.2154 2.7102,-2.7102l0 -3.7525c0,-1.4948 -1.2154,-2.7102 -2.7102,-2.7102l-3.7525 0zm4.378 1.6679c0.2293,0 0.4169,0.1876 0.4169,0.4169 0,0.2293 -0.1876,0.4169 -0.4169,0.4169 -0.2293,0 -0.4169,-0.1876 -0.4169,-0.4169 0,-0.2293 0.1876,-0.4169 0.4169,-0.4169zm-2.5017 0.6254c1.2654,0 2.2932,1.0278 2.2932,2.2932 0,1.2654 -1.0278,2.2932 -2.2932,2.2932 -1.2654,0 -2.2932,-1.0278 -2.2932,-2.2932 0,-1.2654 1.0278,-2.2932 2.2932,-2.2932zm0 0.5593c-0.9556,0 -1.7339,0.7783 -1.7339,1.7339 0,0.9556 0.7783,1.7339 1.7339,1.7339 0.9556,0 1.7339,-0.7783 1.7339,-1.7339 0,-0.9556 -0.7783,-1.7339 -1.7339,-1.7339z"/>
 </g>
</svg>
