<?xml version="1.0" encoding="UTF-8"?>
<!DOCTYPE svg PUBLIC "-//W3C//DTD SVG 1.0//EN" "http://www.w3.org/TR/2001/REC-SVG-20010904/DTD/svg10.dtd">
<!-- Creator: CorelDRAW 2019 (64-Bit) -->
<svg xmlns="http://www.w3.org/2000/svg" xml:space="preserve" width="8.89mm" height="8.89mm" version="1.0" style="shape-rendering:geometricPrecision; text-rendering:geometricPrecision; image-rendering:optimizeQuality; fill-rule:evenodd; clip-rule:evenodd"
viewBox="0 0 8.7497 8.7497"
 xmlns:xlink="http://www.w3.org/1999/xlink">
 <defs>
  <style type="text/css">
   <![CDATA[
    .fil0 {fill:black}
   ]]>
  </style>
 </defs>
 <g id="Capa_x0020_1">
  <metadata id="CorelCorpID_0Corel-Layer"/>
  <path class="fil0" d="M7.7081 0l-6.6665 0c-0.575,0 -1.0416,0.4666 -1.0416,1.0416l0 6.6664c0,0.575 0.4666,1.0416 1.0416,1.0416l6.6665 0.0001c0.575,0 1.0416,-0.4666 1.0416,-1.0416l0 -6.6665c0,-0.575 -0.4666,-1.0416 -1.0416,-1.0416zm-0.8332 3.1249l-0.4166 0c-0.4458,0 -0.625,0.1041 -0.625,0.4166l0 0.625 1.0416 0 -0.2084 1.0416 -0.8332 0.0001 0 3.1249 -1.0417 0 0 -3.1249 -0.8332 0 0 -1.0416 0.8332 -0.0001 0 -0.625c0,-0.8333 0.4166,-1.4583 1.25,-1.4583 0.6041,0 0.8333,0.2084 0.8333,0.2084l0 0.8333z"/>
 </g>
</svg>
