<?xml version="1.0" encoding="UTF-8"?>
<!DOCTYPE svg PUBLIC "-//W3C//DTD SVG 1.1//EN" "http://www.w3.org/Graphics/SVG/1.1/DTD/svg11.dtd">
<!-- Creator: CorelDRAW 2019 (64-Bit) -->
<svg xmlns="http://www.w3.org/2000/svg" xml:space="preserve" width="67.7857mm" height="30.1091mm" version="1.1" style="shape-rendering:geometricPrecision; text-rendering:geometricPrecision; image-rendering:optimizeQuality; fill-rule:evenodd; clip-rule:evenodd"
viewBox="0 0 1684.38 748.17"
 xmlns:xlink="http://www.w3.org/1999/xlink">
 <defs>
  <style type="text/css">
   <![CDATA[
    .str0 {stroke:black;stroke-width:17.53;stroke-miterlimit:22.9256}
    .str2 {stroke:black;stroke-width:4.38;stroke-miterlimit:22.9256}
    .str1 {stroke:black;stroke-width:4.97;stroke-linejoin:round;stroke-miterlimit:22.9256}
    .fil2 {fill:none}
    .fil5 {fill:black}
    .fil3 {fill:black}
    .fil7 {fill:#009933}
    .fil6 {fill:red}
    .fil4 {fill:#FF9F0D}
    .fil0 {fill:white}
    .fil1 {fill:black;fill-rule:nonzero}
   ]]>
  </style>
 </defs>
 <g id="Capa_x0020_1">
  <metadata id="CorelCorpID_0Corel-Layer"/>
  <g id="_2387077844768">
   <path class="fil0" d="M672.22 376.1l-639.7 22.35 23.01 247.86c175.83,112.6 367.23,120.58 574.62,21.04l42.08 -291.25z"/>
   <path class="fil1" d="M744.36 519.23l35.43 0c22.58,0 39.04,-5.29 49.37,-15.95 10.33,-10.67 15.53,-27.96 15.53,-51.97l0 -153.23c0,-16.37 -0.92,-28.3 -2.86,-35.77 -1.85,-7.47 -5.71,-13.85 -11.42,-19.06 -11.34,-10.83 -28.04,-16.2 -50.21,-16.2l-26.28 0 0 -8.65c19.81,-1.01 37.78,-2.77 53.74,-5.29 16.03,-2.52 30.56,-6.05 43.66,-10.58 13.18,-4.53 27.37,-10.75 42.65,-18.81l16.71 0 0 275.98c0,39.71 21.33,59.53 63.98,59.53l32.66 0 0 9.07 -262.96 0 0 -9.07zm608.04 -335l0 9.07 -7.14 11.08c-15.37,24.77 -28.04,46.18 -37.87,64.06 -9.82,17.97 -18.3,35.6 -25.44,52.89 -7.14,17.3 -14.1,36.61 -20.82,57.93 -9.99,32.74 -18.47,65.49 -25.52,98.15 -3.44,17.71 -6.05,34.68 -7.64,50.88l-80.43 0c3.78,-19.81 8.57,-36.61 14.53,-50.38 8.14,-19.06 16.03,-34.92 23.59,-47.77 25.1,-43.07 56.84,-90.43 95.21,-142.06l29.22 -39.38 -151.97 0c-16.88,0 -29.89,2.1 -39.04,6.21 -9.07,4.2 -15.95,11.5 -20.65,21.83 -4.62,10.41 -8.31,26.11 -10.92,47.02l-8.56 0 16.71 -139.54 256.75 0zm189.5 56.42l-147.6 164.73 147.6 0 0 -164.73zm44.75 -62.97l19.23 0 0 227.2 74.56 0 0 38.79 -74.56 0 0 18.72c0,17.89 5.29,31.74 15.79,41.56 10.49,9.82 25.02,14.78 43.74,14.78l11.58 0 0 9.07 -215.02 0 0 -9.07 10.58 0c15.87,0 29.05,-2.18 39.38,-6.63 10.33,-4.45 17.88,-11.25 22.75,-20.57 4.79,-9.24 7.22,-21.33 7.22,-36.27l0 -11.59 -159.19 0 0 -38.79 203.94 -227.2z"/>
   <path class="fil1" d="M724.09 649.26l2.67 0c5.76,0 9.61,-0.77 11.53,-2.3 1.92,-1.54 2.87,-4.24 2.87,-8.13 0,-4.16 -1.03,-7.11 -3.08,-8.83 -2.04,-1.7 -5.83,-2.56 -11.32,-2.56l-2.67 0 0 21.81zm-0.63 10.41l0 35.19 -9.75 0 0 -78.37 15.71 0c4.66,0 8.09,0.31 10.3,0.93 2.19,0.62 4.11,1.66 5.75,3.09 2.01,1.81 3.58,4.27 4.72,7.34 1.13,3.09 1.7,6.49 1.7,10.19 0,3.73 -0.57,7.14 -1.7,10.29 -1.15,3.14 -2.71,5.61 -4.72,7.38 -1.64,1.42 -3.56,2.45 -5.75,3.05 -2.21,0.6 -5.63,0.91 -10.3,0.91l-2.04 0 -3.92 0zm46.45 4.38l17.82 0 -6.56 -17.87c-0.37,-1.13 -0.78,-2.45 -1.18,-3.93 -0.4,-1.48 -0.82,-3.12 -1.22,-4.95 -0.34,1.71 -0.72,3.3 -1.12,4.79 -0.39,1.48 -0.79,2.85 -1.19,4.09l-6.56 17.87zm28.73 30.8l-7.24 -20.17 -25.33 0 -7.42 20.17 -10.91 0 30.95 -81.44 30.92 81.44 -10.97 0zm13.31 -15.69l8.29 -4.69c0.79,3.49 2.24,6.15 4.34,7.98 2.09,1.84 4.77,2.76 8.03,2.76 3.1,0 5.54,-1.06 7.38,-3.16 1.82,-2.1 2.73,-4.92 2.73,-8.44 0,-4.6 -3.11,-8.71 -9.36,-12.31 -0.88,-0.53 -1.55,-0.93 -2.01,-1.17 -7.05,-4.22 -11.74,-8.02 -14.08,-11.44 -2.34,-3.42 -3.52,-7.58 -3.52,-12.5 0,-6.39 1.77,-11.56 5.31,-15.53 3.53,-3.97 8.18,-5.94 13.92,-5.94 4.71,0 8.66,1.12 11.83,3.34 3.18,2.23 5.36,5.42 6.59,9.59l-8.11 5.15c-1.28,-2.47 -2.68,-4.28 -4.22,-5.41 -1.54,-1.15 -3.29,-1.72 -5.28,-1.72 -2.79,0 -5.02,0.89 -6.66,2.68 -1.65,1.77 -2.47,4.17 -2.47,7.16 0,4.71 3.62,9.12 10.85,13.17 0.55,0.33 0.98,0.59 1.31,0.75 6.32,3.58 10.66,7.07 13.01,10.47 2.36,3.42 3.53,7.67 3.53,12.77 0,7.42 -1.91,13.32 -5.72,17.69 -3.81,4.36 -8.97,6.56 -15.47,6.56 -5.44,0 -9.89,-1.54 -13.38,-4.6 -3.47,-3.07 -5.75,-7.45 -6.83,-13.17zm73.39 -51.83l0 67.52 -10.37 0 0 -67.52 -16.99 0 0 -10.85 44.26 0 0 10.85 -16.9 0zm24.84 67.52l0 -78.37 35.67 0 0 10.85 -25.3 0 0 19.62 25.3 0 0 11.18 -25.3 0 0 25.32 25.3 0 0 11.4 -35.67 0zm47.58 0l0 -78.37 10.37 0 0 66.97 23.25 0 0 11.4 -33.62 0zm42.04 0l0 -78.37 35.67 0 0 10.85 -25.3 0 0 19.62 25.3 0 0 11.18 -25.3 0 0 25.32 25.3 0 0 11.4 -35.67 0zm57.95 -44.94l1.89 0c5.5,0 9.15,-0.79 10.95,-2.36 1.8,-1.57 2.71,-4.35 2.71,-8.35 0,-4.31 -0.97,-7.34 -2.9,-9.12 -1.94,-1.77 -5.53,-2.65 -10.76,-2.65l-1.89 0 0 22.47zm-0.63 9.86l0 35.08 -9.74 0 0 -78.37 14.48 0c4.25,0 7.54,0.35 9.89,1.02 2.34,0.68 4.34,1.79 5.99,3.36 1.98,1.9 3.5,4.35 4.59,7.34 1.07,3 1.61,6.27 1.61,9.85 0,6.27 -1.23,11.18 -3.71,14.74 -2.47,3.55 -6.12,5.68 -10.95,6.39l21.99 35.66 -11.71 0 -21.28 -35.08 -1.16 0zm40.5 35.08l0 -78.37 10.37 0 0 78.37 -10.37 0zm38.82 -30.8l17.82 0 -6.56 -17.87c-0.37,-1.13 -0.78,-2.45 -1.18,-3.93 -0.4,-1.48 -0.82,-3.12 -1.22,-4.95 -0.34,1.71 -0.72,3.3 -1.12,4.79 -0.39,1.48 -0.79,2.85 -1.19,4.09l-6.56 17.87zm28.73 30.8l-7.24 -20.17 -25.33 0 -7.42 20.17 -10.91 0 30.95 -81.44 30.92 81.44 -10.97 0zm57.46 -30.8l17.82 0 -6.56 -17.87c-0.37,-1.13 -0.77,-2.45 -1.18,-3.93 -0.4,-1.48 -0.82,-3.12 -1.22,-4.95 -0.34,1.71 -0.72,3.3 -1.12,4.79 -0.39,1.48 -0.79,2.85 -1.19,4.09l-6.56 17.87zm28.73 30.8l-7.24 -20.17 -25.33 0 -7.42 20.17 -10.91 0 30.95 -81.44 30.92 81.44 -10.97 0zm27.34 -44.94l1.89 0c5.5,0 9.15,-0.79 10.95,-2.36 1.8,-1.57 2.71,-4.35 2.71,-8.35 0,-4.31 -0.97,-7.34 -2.91,-9.12 -1.94,-1.77 -5.53,-2.65 -10.76,-2.65l-1.89 0 0 22.47zm-0.63 9.86l0 35.08 -9.74 0 0 -78.37 14.48 0c4.25,0 7.54,0.35 9.89,1.02 2.34,0.68 4.34,1.79 5.99,3.36 1.98,1.9 3.5,4.35 4.59,7.34 1.07,3 1.61,6.27 1.61,9.85 0,6.27 -1.23,11.18 -3.71,14.74 -2.47,3.55 -6.13,5.68 -10.95,6.39l21.99 35.66 -11.71 0 -21.28 -35.08 -1.16 0zm60.98 -32.45l0 67.52 -10.37 0 0 -67.52 -16.99 0 0 -10.85 44.26 0 0 10.85 -16.9 0zm24.84 67.52l0 -78.37 35.67 0 0 10.85 -25.3 0 0 19.62 25.3 0 0 11.18 -25.3 0 0 25.32 25.3 0 0 11.4 -35.67 0zm43.91 -15.69l8.28 -4.69c0.79,3.49 2.24,6.15 4.34,7.98 2.08,1.84 4.77,2.76 8.03,2.76 3.1,0 5.54,-1.06 7.38,-3.16 1.82,-2.1 2.73,-4.92 2.73,-8.44 0,-4.6 -3.11,-8.71 -9.36,-12.31 -0.88,-0.53 -1.55,-0.93 -2.01,-1.17 -7.05,-4.22 -11.74,-8.02 -14.08,-11.44 -2.34,-3.42 -3.52,-7.58 -3.52,-12.5 0,-6.39 1.77,-11.56 5.3,-15.53 3.53,-3.97 8.18,-5.94 13.92,-5.94 4.71,0 8.66,1.12 11.83,3.34 3.17,2.23 5.36,5.42 6.58,9.59l-8.11 5.15c-1.28,-2.47 -2.68,-4.28 -4.22,-5.41 -1.54,-1.15 -3.29,-1.72 -5.28,-1.72 -2.79,0 -5.02,0.89 -6.66,2.68 -1.66,1.77 -2.47,4.17 -2.47,7.16 0,4.71 3.62,9.12 10.85,13.17 0.55,0.33 0.98,0.59 1.31,0.75 6.32,3.58 10.66,7.07 13.01,10.47 2.35,3.42 3.53,7.67 3.53,12.77 0,7.42 -1.91,13.32 -5.72,17.69 -3.81,4.36 -8.97,6.56 -15.47,6.56 -5.44,0 -9.89,-1.54 -13.38,-4.6 -3.47,-3.07 -5.75,-7.45 -6.83,-13.17zm66.24 -15.11l17.82 0 -6.56 -17.87c-0.37,-1.13 -0.78,-2.45 -1.18,-3.93 -0.4,-1.48 -0.82,-3.12 -1.22,-4.95 -0.34,1.71 -0.72,3.3 -1.12,4.79 -0.39,1.48 -0.79,2.85 -1.19,4.09l-6.56 17.87zm28.73 30.8l-7.24 -20.17 -25.33 0 -7.42 20.17 -10.91 0 30.95 -81.44 30.92 81.44 -10.97 0zm16.97 0l0 -81.44 40.62 47.88c1.1,1.35 2.22,2.8 3.37,4.33 1.13,1.54 2.33,3.27 3.58,5.19l0 -54.33 9.57 0 0 81.44 -41.41 -48.78c-1.1,-1.33 -2.17,-2.72 -3.2,-4.18 -1.04,-1.46 -2.01,-3 -2.95,-4.6l0 54.5 -9.57 0zm85.31 -30.8l17.82 0 -6.56 -17.87c-0.37,-1.13 -0.78,-2.45 -1.18,-3.93 -0.4,-1.48 -0.82,-3.12 -1.22,-4.95 -0.34,1.71 -0.72,3.3 -1.12,4.79 -0.39,1.48 -0.79,2.85 -1.19,4.09l-6.56 17.87zm28.73 30.8l-7.24 -20.17 -25.33 0 -7.42 20.17 -10.91 0 30.95 -81.44 30.92 81.44 -10.97 0zm16.97 0l0 -78.37 10.37 0 0 66.97 23.25 0 0 11.4 -33.62 0z"/>
   <line class="fil2 str0" x1="713.84" y1="571.69" x2="1679.81" y2= "576.26" />
   <path class="fil3 str1" d="M54.87 675.67l-10.96 -153.41 36.16 138.06c167.4,81.39 345.78,99.06 542.4,10.96l25.2 -99.71c-122.02,67.78 -256.69,64.72 -393.38,50.41 133.18,13.92 265.31,-1.13 395.57,-69.03l7.67 -28.49 -12.05 149.02c-74.57,81.31 -438.98,109.36 -590.61,2.19z"/>
   <path class="fil4" d="M18.71 464.19c-22.91,-2.16 -25.67,-21.22 -3.29,-61.36 -11.58,-33.88 -13.61,-70.95 -7.67,-110.67 44.22,-90.19 181.14,-120.92 380.23,-111.77 155.86,6.09 272.61,30.79 305.72,95.33l9.86 74.51c14.57,36.11 20.86,66.52 12.05,86.56 -7.12,26.48 -34.52,20.09 -26.3,-7.67 -8.33,-45.86 -51.76,-31.94 -42.73,2.19 13.7,63.74 -20.82,68.85 -19.72,25.2 -10.6,-47.3 -71.04,-28.86 -67.94,10.96 15.61,71.86 -21.64,87.84 -36.16,40.54 -18.08,-47.94 -73.42,-54.24 -62.46,-3.29 7.85,40.04 -29.77,45.29 -24.11,12.05 4.2,-24.93 -52.96,-51.5 -61.91,19.72 -2.35,14.64 2.98,39.69 10.41,65.75 1.28,36.71 -54.42,22.74 -40.54,-6.57 8.95,-22.74 10.23,-50.41 15.34,-75.61 0,-48.21 -99.99,-59.99 -85.47,3.29 6.39,43.1 -31.05,61.54 -35.06,17.53 -10.54,-66.75 -44.06,-61.91 -49.31,-4.38 -7.91,46 -37.38,28.16 -29.58,-4.38 4.35,-49.62 -46.54,-83.15 -56.98,-46.02 -1.46,22.47 14.61,30.13 12.05,46.02 -9.06,25.93 -44.99,22.29 -54.79,-12.05 -4.4,-20.95 1.48,-38.12 17.53,-51.77 21.64,-34.07 -38.99,-87.75 -41.64,-44.65 0.87,24.93 -3.79,40.46 -17.53,40.54z"/>
   <path class="fil0" d="M663.3 302.27c-100.41,72.2 -234.16,92.88 -398.85,65.74 135.08,12.18 268.15,-7.8 398.85,-65.74z"/>
   <g>
    <path class="fil5 str2" d="M373.77 71.18c20.74,-16.06 45.73,-26.06 72.52,-21.23 24.39,4.4 43.34,20.25 56.52,40.66l0.31 0.49 0.27 0.51c26.61,51.08 18.46,112.16 -28.68,148.19l-0.2 0.15c-55.91,40.94 -135.87,71.73 -198.24,25.4 -19.21,-14.26 -33.17,-33.91 -41.98,-56.03l-0.29 -0.72 -0.2 -0.75c-5.03,-19.33 -6.06,-40.48 2.61,-58.97 16.77,-35.8 60.36,-44.53 97.43,-45.39 -3.07,-32.44 6.93,-63.03 24.66,-91.14l6 -9.52 39.34 19.67 -9.75 12.02c-9.21,11.34 -15.89,23.58 -20.32,36.64z"/>
   </g>
   <path class="fil6 str2" d="M492.37 97.35c-33.77,-52.27 -92.87,-47.18 -137.75,10.74 1.27,-30.38 10.62,-57.73 29.82,-81.39l-15.43 -7.72c-22.08,35.01 -27.22,67.03 -20.67,96.98 -92.51,-2.53 -115.87,37.48 -102.52,88.77 29.34,73.67 114.94,103.1 221.34,25.2 46.97,-35.91 45.82,-93.02 25.2,-132.58z"/>
   <path class="fil7" d="M381.26 27.42c-15.8,19.92 -25.54,50.85 -28.84,85.2l-0.2 2.12c0,0.01 -0.79,2.25 -1.28,3.41 -7.25,-32.34 -0.68,-65.43 17.5,-96.89l12.82 6.16z"/>
  </g>
 </g>
</svg>
